HIERARCHY
ROOT Haolin_V1:Solving:Hips
{
	OFFSET 0.000000 0.000000 0.000000
	CHANNELS 6 Xposition Yposition Zposition Xrotation Yrotation Zrotation
	JOINT Haolin_V1:Solving:Spine
	{
		OFFSET 0.000000 -12.731938 2.520517
		CHANNELS 6 Xposition Yposition Zposition Xrotation Yrotation Zrotation
		JOINT Haolin_V1:Solving:Spine1
		{
			OFFSET 0.000000 -8.486854 1.496462
			CHANNELS 6 Xposition Yposition Zposition Xrotation Yrotation Zrotation
			JOINT Haolin_V1:Solving:Spine2
			{
				OFFSET 0.000000 -8.584984 0.751091
				CHANNELS 6 Xposition Yposition Zposition Xrotation Yrotation Zrotation
				JOINT Haolin_V1:Solving:Spine3
				{
					OFFSET 0.000000 -8.617775 0.000000
					CHANNELS 6 Xposition Yposition Zposition Xrotation Yrotation Zrotation
					JOINT Haolin_V1:Solving:Neck
					{
						OFFSET 0.000000 -11.080002 -1.107998
						CHANNELS 6 Xposition Yposition Zposition Xrotation Yrotation Zrotation
						JOINT Haolin_V1:Solving:Neck1
						{
							OFFSET 0.000000 -8.314011 -0.727381
							CHANNELS 6 Xposition Yposition Zposition Xrotation Yrotation Zrotation
							JOINT Haolin_V1:Solving:Head
							{
								OFFSET 0.000000 -8.218975 -1.449226
								CHANNELS 6 Xposition Yposition Zposition Xrotation Yrotation Zrotation
								JOINT Haolin_V1:Solving:HeadEnd
								{
									OFFSET 0.000000 -9.728081 0.000002
									CHANNELS 6 Xposition Yposition Zposition Xrotation Yrotation Zrotation
									End Site
									{
										OFFSET 0.000000 -9.728081 0.000002
									}
								}
							}
						}
					}
					JOINT Haolin_V1:Solving:RightShoulder
					{
						OFFSET 0.000000 -7.914288 -5.288076
						CHANNELS 6 Xposition Yposition Zposition Xrotation Yrotation Zrotation
						JOINT Haolin_V1:Solving:RightArm
						{
							OFFSET -20.201836 -0.000008 0.000000
							CHANNELS 6 Xposition Yposition Zposition Xrotation Yrotation Zrotation
							JOINT Haolin_V1:Solving:RightForeArm
							{
								OFFSET -29.446457 -0.000008 0.000000
								CHANNELS 6 Xposition Yposition Zposition Xrotation Yrotation Zrotation
								JOINT Haolin_V1:Solving:RightHand
								{
									OFFSET -23.111885 -0.000008 0.000000
									CHANNELS 6 Xposition Yposition Zposition Xrotation Yrotation Zrotation
									JOINT Haolin_V1:Solving:RightHandThumb1
									{
										OFFSET -3.824379 2.925484 -2.843767
										CHANNELS 6 Xposition Yposition Zposition Xrotation Yrotation Zrotation
										End Site
										{
											OFFSET -5.557076 0.000000 -5.608460
										}
									}
									JOINT Haolin_V1:Solving:RightHandMiddle1
									{
										OFFSET -10.198334 -0.000004 0.065374
										CHANNELS 6 Xposition Yposition Zposition Xrotation Yrotation Zrotation
										End Site
										{
											OFFSET -7.895309 -0.000004 0.000000
										}
									}
								}
							}
						}
					}
					JOINT Haolin_V1:Solving:LeftShoulder
					{
						OFFSET 0.000000 -7.914288 -5.288076
						CHANNELS 6 Xposition Yposition Zposition Xrotation Yrotation Zrotation
						JOINT Haolin_V1:Solving:LeftArm
						{
							OFFSET 20.201836 -0.000008 0.000000
							CHANNELS 6 Xposition Yposition Zposition Xrotation Yrotation Zrotation
							JOINT Haolin_V1:Solving:LeftForeArm
							{
								OFFSET 29.446457 -0.000008 0.000000
								CHANNELS 6 Xposition Yposition Zposition Xrotation Yrotation Zrotation
								JOINT Haolin_V1:Solving:LeftHand
								{
									OFFSET 23.111885 -0.000008 0.000000
									CHANNELS 6 Xposition Yposition Zposition Xrotation Yrotation Zrotation
									JOINT Haolin_V1:Solving:LeftHandThumb1
									{
										OFFSET 3.824379 2.925484 -2.843767
										CHANNELS 6 Xposition Yposition Zposition Xrotation Yrotation Zrotation
										End Site
										{
											OFFSET 5.557076 0.000000 -5.608460
										}
									}
									JOINT Haolin_V1:Solving:LeftHandMiddle1
									{
										OFFSET 10.198334 -0.000004 0.065374
										CHANNELS 6 Xposition Yposition Zposition Xrotation Yrotation Zrotation
										End Site
										{
											OFFSET 7.895309 -0.000004 0.000000
										}
									}
								}
							}
						}
					}
				}
			}
		}
	}
	JOINT Haolin_V1:Solving:RightUpLeg
	{
		OFFSET -10.695510 0.000000 0.000000
		CHANNELS 6 Xposition Yposition Zposition Xrotation Yrotation Zrotation
		JOINT Haolin_V1:Solving:RightLeg
		{
			OFFSET 0.000000 46.236332 -0.000006
			CHANNELS 6 Xposition Yposition Zposition Xrotation Yrotation Zrotation
			JOINT Haolin_V1:Solving:RightFoot
			{
				OFFSET 0.000000 41.248135 -0.000006
				CHANNELS 6 Xposition Yposition Zposition Xrotation Yrotation Zrotation
				JOINT Haolin_V1:Solving:RightForeFoot
				{
					OFFSET 0.000000 3.207336 -0.000000
					CHANNELS 6 Xposition Yposition Zposition Xrotation Yrotation Zrotation
					JOINT Haolin_V1:Solving:RightToeBase
					{
						OFFSET 0.000000 0.000000 -12.560947
						CHANNELS 6 Xposition Yposition Zposition Xrotation Yrotation Zrotation
						JOINT Haolin_V1:Solving:RightToeBaseEnd
						{
							OFFSET 0.000000 0.000000 -3.517768
							CHANNELS 6 Xposition Yposition Zposition Xrotation Yrotation Zrotation
							End Site
							{
								OFFSET 0.000000 -3.517769 0.000004
							}
						}
					}
				}
			}
		}
	}
	JOINT Haolin_V1:Solving:LeftUpLeg
	{
		OFFSET 10.695510 0.000000 0.000000
		CHANNELS 6 Xposition Yposition Zposition Xrotation Yrotation Zrotation
		JOINT Haolin_V1:Solving:LeftLeg
		{
			OFFSET 0.000000 46.236332 -0.000006
			CHANNELS 6 Xposition Yposition Zposition Xrotation Yrotation Zrotation
			JOINT Haolin_V1:Solving:LeftFoot
			{
				OFFSET 0.000000 41.248135 -0.000006
				CHANNELS 6 Xposition Yposition Zposition Xrotation Yrotation Zrotation
				JOINT Haolin_V1:Solving:LeftForeFoot
				{
					OFFSET 0.000000 3.207336 -0.000000
					CHANNELS 6 Xposition Yposition Zposition Xrotation Yrotation Zrotation
					JOINT Haolin_V1:Solving:LeftToeBase
					{
						OFFSET 0.000000 0.000000 -12.560947
						CHANNELS 6 Xposition Yposition Zposition Xrotation Yrotation Zrotation
						JOINT Haolin_V1:Solving:LeftToeBaseEnd
						{
							OFFSET 0.000000 0.000000 -3.901837
							CHANNELS 6 Xposition Yposition Zposition Xrotation Yrotation Zrotation
							End Site
							{
								OFFSET 0.000000 -3.901840 0.000004
							}
						}
					}
				}
			}
		}
	}
}
MOTION
Frames: 5
Frame Time: 0.041667
-6.251712 -98.587402 -94.147842 -78.413741 -1.788106 178.927706 -0.000001 -12.731945 2.520519 14.509970 -0.378607 -1.408232 0.000000 -8.486846 1.496445 1.258754 -0.178349 0.358766 0.000000 -8.584972 0.751109 -4.761460 -1.192456 1.206009 -0.000002 -8.617772 -0.000023 -2.873350 -0.433678 1.612498 0.000001 -11.080014 -1.107970 4.973348 0.114558 -1.557912 0.000000 -8.313980 -0.727373 3.017255 -2.258692 -2.145055 0.000001 -8.218979 -1.449228 8.967285 0.158096 -2.661231 -0.000004 -9.728073 -0.000001 -0.000000 -0.000000 0.000000 0.000001 -7.914276 -5.288071 -0.000001 16.208174 11.326885 -20.201828 -0.000006 -0.000006 -2.157210 -46.692918 -89.646943 -29.446444 -0.000003 0.000013 10.906027 -21.430345 4.026869 -23.111887 -0.000009 0.000016 0.227971 3.587607 -3.638431 -3.824399 2.925479 -2.843750 -0.000002 -0.000003 0.000004 -10.198331 -0.000006 0.065374 -0.000001 0.000001 0.000003 -0.000001 -7.914276 -5.288071 0.000000 -11.814517 -11.783008 20.201836 -0.000003 0.000005 -3.637926 20.786168 94.533329 29.446453 -0.000002 -0.000012 15.993663 10.895636 -3.101116 23.111877 0.000003 0.000004 -0.149740 -0.664179 -12.703736 3.824386 2.925479 -2.843738 0.000004 0.000012 0.000000 10.198324 -0.000011 0.065386 -0.000004 0.000003 -0.000002 -10.695511 0.000009 -0.000020 5.630618 12.049595 6.087449 0.000003 46.236336 -0.000013 16.485256 -0.000001 0.000001 0.000005 41.248131 -0.000016 -12.570718 0.053671 -5.796356 -0.000006 3.207336 0.000008 0.000000 -0.000000 -0.000000 0.000005 0.000002 -12.560940 10.633689 -0.000001 -0.000000 -0.000007 -0.000000 -3.517742 -0.000001 -0.000001 0.000001 10.695512 0.000009 0.000008 5.168598 -14.489370 0.967308 0.000002 46.236336 -0.000018 15.435253 0.000000 0.000001 -0.000001 41.248135 -0.000013 -10.085258 -13.901220 -6.499574 -0.000004 3.207336 -0.000008 -0.000000 -0.000000 -0.000000 0.000005 0.000004 -12.560940 10.702721 -0.000002 0.000002 0.000002 0.000008 -3.901823 0.000001 0.000003 -0.000001 
-6.240577 -98.587639 -94.151810 -78.423365 -1.831467 178.966474 -0.000000 -12.731930 2.520519 14.459425 -0.376213 -1.438244 -0.000000 -8.486848 1.496453 1.248559 -0.178268 0.359300 -0.000000 -8.584973 0.751090 -4.784932 -1.212374 1.190784 -0.000001 -8.617763 -0.000003 -2.876995 -0.433805 1.592466 0.000000 -11.080000 -1.107986 5.008026 0.151350 -1.534850 -0.000001 -8.314015 -0.727388 3.068151 -2.117119 -2.114883 -0.000000 -8.219025 -1.449239 9.034114 0.161972 -2.646580 0.000003 -9.728073 0.000001 -0.000000 0.000000 -0.000000 0.000000 -7.914253 -5.288073 -0.000007 16.046583 11.459344 -20.201834 0.000002 0.000010 -2.575376 -47.614601 -89.216006 -29.446457 -0.000014 -0.000005 11.635392 -21.483023 4.312522 -23.111876 -0.000004 0.000005 0.309348 3.598880 -4.916117 -3.824376 2.925479 -2.843765 0.000008 0.000010 -0.000006 -10.198343 0.000003 0.065375 0.000009 -0.000001 -0.000002 0.000003 -7.914253 -5.288073 -0.000004 -11.761626 -11.841668 20.201836 -0.000019 -0.000012 -3.814163 21.201194 93.921863 29.446442 -0.000009 -0.000002 16.019534 10.731911 -3.060354 23.111889 -0.000023 0.000012 -0.020455 -0.101703 -11.363074 3.824345 2.925454 -2.843746 -0.000007 0.000007 -0.000003 10.198291 -0.000033 0.065381 -0.000007 0.000001 -0.000006 -10.695507 0.000017 0.000009 5.619591 12.099765 6.059001 0.000005 46.236351 -0.000035 16.471718 -0.000003 -0.000000 -0.000008 41.248127 -0.000012 -12.564798 -0.060929 -5.746345 0.000004 3.207344 -0.000020 0.000000 0.000000 -0.000000 -0.000001 -0.000001 -12.560972 10.751470 -0.000001 0.000001 -0.000003 0.000009 -3.517761 0.000003 -0.000000 -0.000000 10.695515 0.000013 0.000002 5.179634 -14.582087 0.924926 -0.000001 46.236340 -0.000029 15.392675 0.000002 0.000001 0.000000 41.248142 -0.000002 -10.090443 -13.857878 -6.511382 -0.000000 3.207336 -0.000008 0.000000 0.000007 0.000000 0.000009 -0.000017 -12.560949 10.719023 0.000002 -0.000000 -0.000004 0.000000 -3.901841 0.000000 0.000004 -0.000000 
-6.232092 -98.578491 -94.151779 -78.449763 -1.887061 178.962199 0.000000 -12.731938 2.520515 14.411942 -0.373896 -1.420381 -0.000002 -8.486850 1.496435 1.231326 -0.179331 0.352790 -0.000001 -8.584959 0.751079 -4.804056 -1.248987 1.179355 0.000000 -8.617758 -0.000029 -2.886700 -0.441404 1.587892 0.000001 -11.079965 -1.107988 5.015747 0.205077 -1.505803 0.000000 -8.314028 -0.727375 3.116783 -1.957872 -2.101511 -0.000001 -8.218993 -1.449215 9.099433 0.169284 -2.651828 0.000001 -9.728073 0.000009 -0.000001 -0.000000 -0.000000 -0.000002 -7.914310 -5.288054 -0.000008 15.909592 11.627234 -20.201824 -0.000006 -0.000002 -3.122331 -48.492116 -88.909173 -29.446434 -0.000015 0.000005 12.412694 -21.520377 4.615909 -23.111897 0.000006 0.000004 0.367213 3.547916 -5.913018 -3.824385 2.925488 -2.843753 0.000008 -0.000003 0.000001 -10.198339 -0.000010 0.065388 0.000007 -0.000000 0.000003 0.000000 -7.914310 -5.288054 -0.000004 -11.660545 -11.926761 20.201830 0.000031 0.000011 -4.016185 21.504419 93.300521 29.446440 -0.000010 0.000020 15.901121 10.462374 -2.961304 23.111876 -0.000012 -0.000013 0.112015 0.628229 -10.110884 3.824364 2.925488 -2.843744 0.000011 -0.000002 0.000001 10.198307 -0.000009 0.065385 0.000002 0.000001 -0.000005 -10.695509 -0.000006 -0.000004 5.586631 12.154084 6.080696 0.000003 46.236328 -0.000011 16.442709 0.000001 0.000002 0.000003 41.248138 0.000003 -12.532506 -0.161795 -5.759425 -0.000002 3.207336 -0.000006 0.000000 0.000001 0.000000 0.000001 -0.000015 -12.560939 10.664137 -0.000001 0.000000 0.000002 0.000000 -3.517802 0.000001 -0.000003 0.000001 10.695511 0.000007 0.000001 5.168359 -14.644605 0.930057 0.000003 46.236340 -0.000024 15.368930 -0.000003 0.000001 -0.000001 41.248123 -0.000007 -10.068064 -13.854362 -6.498694 -0.000006 3.207336 0.000008 0.000000 -0.000001 -0.000001 -0.000004 -0.000014 -12.560929 10.704442 0.000003 -0.000000 -0.000006 0.000001 -3.901827 0.000002 0.000005 0.000000 
-6.215009 -98.569344 -94.154755 -78.451498 -1.948998 178.980162 -0.000001 -12.731950 2.520522 14.386586 -0.370578 -1.429955 -0.000003 -8.486850 1.496451 1.220665 -0.182087 0.353839 -0.000001 -8.584966 0.751092 -4.814133 -1.292215 1.172792 -0.000001 -8.617777 0.000003 -2.901433 -0.457694 1.599977 0.000001 -11.079967 -1.108009 5.030398 0.282865 -1.488662 0.000001 -8.314025 -0.727396 3.130646 -1.808284 -2.100674 -0.000001 -8.218994 -1.449205 9.173500 0.177711 -2.665954 0.000000 -9.728058 0.000001 -0.000000 -0.000000 -0.000001 -0.000001 -7.914261 -5.288079 -0.000006 15.764592 11.765710 -20.201834 -0.000013 0.000031 -3.699673 -49.414148 -88.608235 -29.446432 -0.000004 0.000005 13.026895 -21.629546 4.874408 -23.111885 -0.000009 0.000013 0.403644 3.556805 -6.478919 -3.824407 2.925483 -2.843767 0.000006 0.000002 0.000003 -10.198334 0.000007 0.065368 0.000006 0.000003 -0.000000 0.000000 -7.914261 -5.288079 -0.000005 -11.558644 -12.034817 20.201828 0.000016 0.000019 -4.236338 21.817851 92.658777 29.446453 -0.000024 0.000013 15.560003 10.184370 -2.818652 23.111874 -0.000028 -0.000008 0.231587 1.450091 -9.074842 3.824379 2.925463 -2.843778 0.000003 0.000003 0.000000 10.198323 -0.000025 0.065358 -0.000002 -0.000001 -0.000003 -10.695511 -0.000007 0.000004 5.566318 12.205349 6.075011 -0.000005 46.236320 -0.000002 16.439155 -0.000002 0.000001 -0.000002 41.248150 0.000003 -12.513614 -0.258044 -5.793094 -0.000002 3.207336 0.000021 -0.000000 0.000001 -0.000000 -0.000001 -0.000022 -12.560929 10.692329 -0.000001 -0.000000 0.000003 0.000008 -3.517778 0.000000 -0.000001 0.000001 10.695506 -0.000007 0.000001 5.172391 -14.695015 0.907921 0.000002 46.236347 -0.000001 15.349609 0.000001 0.000001 0.000000 41.248127 -0.000008 -10.142069 -13.879934 -6.313657 -0.000005 3.207336 -0.000007 -0.000000 0.000003 0.000001 -0.000002 -0.000006 -12.560980 11.113788 0.000002 0.000002 0.000007 0.000007 -3.901824 -0.000000 0.000002 -0.000001 
-6.196683 -98.559326 -94.156502 -78.446130 -2.020041 178.994956 -0.000001 -12.731921 2.520553 14.379454 -0.369196 -1.437890 -0.000000 -8.486854 1.496459 1.207853 -0.184382 0.349458 0.000000 -8.584966 0.751116 -4.831439 -1.344081 1.176899 -0.000002 -8.617794 -0.000005 -2.907022 -0.474120 1.619445 0.000002 -11.079961 -1.107967 5.005638 0.365637 -1.473437 -0.000000 -8.313990 -0.727379 3.175670 -1.645382 -2.101413 0.000000 -8.218978 -1.449218 9.227777 0.187243 -2.684101 -0.000002 -9.728065 0.000011 0.000000 -0.000000 0.000000 0.000000 -7.914265 -5.288063 -0.000008 15.625207 11.902495 -20.201822 0.000023 0.000000 -4.325703 -50.275318 -88.331244 -29.446463 0.000005 -0.000001 13.744851 -21.831665 5.197452 -23.111889 0.000005 0.000008 0.418370 3.573876 -6.681227 -3.824352 2.925449 -2.843768 0.000004 -0.000009 0.000004 -10.198324 -0.000014 0.065366 -0.000003 -0.000002 0.000002 0.000001 -7.914261 -5.288063 -0.000005 -11.475674 -12.133477 20.201828 -0.000009 0.000024 -4.411412 22.173560 91.955383 29.446465 -0.000004 0.000012 14.823857 10.045050 -2.642986 23.111876 -0.000025 0.000010 0.332264 2.294397 -8.242326 3.824371 2.925485 -2.843738 0.000003 -0.000002 0.000000 10.198293 0.000005 0.065421 -0.000000 -0.000001 -0.000003 -10.695508 0.000013 0.000021 5.554726 12.225444 6.071359 0.000002 46.236336 -0.000029 16.434347 -0.000001 0.000001 -0.000006 41.248131 0.000010 -12.514057 -0.366872 -5.769384 0.000002 3.207336 0.000002 0.000000 -0.000002 -0.000000 0.000003 -0.000005 -12.560964 10.724211 0.000002 -0.000002 0.000001 0.000015 -3.517778 -0.000000 -0.000000 0.000001 10.695511 0.000002 0.000037 5.180379 -14.743090 0.892628 0.000007 46.236313 -0.000016 15.346030 -0.000001 0.000001 0.000002 41.248150 -0.000002 -10.093189 -13.926492 -6.446729 0.000000 3.207336 -0.000003 -0.000000 -0.000002 -0.000000 0.000007 0.000013 -12.560952 10.879436 -0.000001 0.000002 -0.000000 0.000008 -3.901817 0.000002 0.000003 -0.000003 
